<mxfile host="app.diagrams.net" modified="2024-03-09T14:34:48.640Z" agent="Mozilla/5.0 (X11; Linux x86_64) AppleWebKit/537.36 (KHTML, like Gecko) Chrome/122.0.0.0 Safari/537.36" etag="EKaT42HkZ04on-0Ipf_j" version="24.0.3" type="device">
  <diagram name="Strona-1" id="Vckqwm3Ylss_2YaPzyWj">
    <mxGraphModel dx="1137" dy="633" grid="1" gridSize="10" guides="1" tooltips="1" connect="1" arrows="1" fold="1" page="1" pageScale="1" pageWidth="827" pageHeight="1169" math="0" shadow="0">
      <root>
        <mxCell id="0" />
        <mxCell id="1" parent="0" />
        <mxCell id="22zVOBzsO85MiMw-DCJ8-52" value="" style="rounded=0;whiteSpace=wrap;html=1;" vertex="1" parent="1">
          <mxGeometry x="180" y="560" width="430" height="310" as="geometry" />
        </mxCell>
        <mxCell id="22zVOBzsO85MiMw-DCJ8-35" value="" style="rounded=0;whiteSpace=wrap;html=1;" vertex="1" parent="1">
          <mxGeometry x="140" y="100" width="660" height="390" as="geometry" />
        </mxCell>
        <mxCell id="22zVOBzsO85MiMw-DCJ8-3" value="Motor driver" style="rounded=1;whiteSpace=wrap;html=1;" vertex="1" parent="1">
          <mxGeometry x="160" y="120" width="120" height="60" as="geometry" />
        </mxCell>
        <mxCell id="22zVOBzsO85MiMw-DCJ8-29" style="edgeStyle=elbowEdgeStyle;rounded=0;orthogonalLoop=1;jettySize=auto;elbow=vertical;html=1;exitX=0.75;exitY=1;exitDx=0;exitDy=0;entryX=0.5;entryY=0;entryDx=0;entryDy=0;fillColor=#d5e8d4;strokeColor=#82b366;startArrow=none;startFill=0;" edge="1" parent="1" source="22zVOBzsO85MiMw-DCJ8-4" target="22zVOBzsO85MiMw-DCJ8-7">
          <mxGeometry relative="1" as="geometry">
            <Array as="points">
              <mxPoint x="590" y="240" />
            </Array>
          </mxGeometry>
        </mxCell>
        <mxCell id="22zVOBzsO85MiMw-DCJ8-4" value="Lidar driver" style="rounded=1;whiteSpace=wrap;html=1;" vertex="1" parent="1">
          <mxGeometry x="400" y="120" width="120" height="60" as="geometry" />
        </mxCell>
        <mxCell id="22zVOBzsO85MiMw-DCJ8-28" style="edgeStyle=elbowEdgeStyle;rounded=0;orthogonalLoop=1;jettySize=auto;elbow=vertical;html=1;exitX=0.75;exitY=1;exitDx=0;exitDy=0;entryX=0.5;entryY=0;entryDx=0;entryDy=0;fillColor=#d5e8d4;strokeColor=#82b366;startArrow=none;startFill=0;" edge="1" parent="1" source="22zVOBzsO85MiMw-DCJ8-5" target="22zVOBzsO85MiMw-DCJ8-7">
          <mxGeometry relative="1" as="geometry">
            <Array as="points">
              <mxPoint x="650" y="240" />
            </Array>
          </mxGeometry>
        </mxCell>
        <mxCell id="22zVOBzsO85MiMw-DCJ8-5" value="IMU driver" style="rounded=1;whiteSpace=wrap;html=1;" vertex="1" parent="1">
          <mxGeometry x="530" y="120" width="120" height="60" as="geometry" />
        </mxCell>
        <mxCell id="22zVOBzsO85MiMw-DCJ8-6" value="Radar driver" style="rounded=1;whiteSpace=wrap;html=1;" vertex="1" parent="1">
          <mxGeometry x="660" y="120" width="120" height="60" as="geometry" />
        </mxCell>
        <mxCell id="22zVOBzsO85MiMw-DCJ8-23" style="edgeStyle=elbowEdgeStyle;rounded=0;orthogonalLoop=1;jettySize=auto;elbow=vertical;html=1;exitX=0;exitY=0.5;exitDx=0;exitDy=0;entryX=1;entryY=0.5;entryDx=0;entryDy=0;fillColor=#d5e8d4;strokeColor=#82b366;" edge="1" parent="1" source="22zVOBzsO85MiMw-DCJ8-7" target="22zVOBzsO85MiMw-DCJ8-10">
          <mxGeometry relative="1" as="geometry" />
        </mxCell>
        <mxCell id="22zVOBzsO85MiMw-DCJ8-7" value="Data fusion node" style="rounded=1;whiteSpace=wrap;html=1;" vertex="1" parent="1">
          <mxGeometry x="620" y="270" width="120" height="60" as="geometry" />
        </mxCell>
        <mxCell id="22zVOBzsO85MiMw-DCJ8-13" style="edgeStyle=elbowEdgeStyle;rounded=0;orthogonalLoop=1;jettySize=auto;elbow=vertical;html=1;exitX=0.5;exitY=0;exitDx=0;exitDy=0;entryX=0.872;entryY=0.992;entryDx=0;entryDy=0;fillColor=#fff2cc;strokeColor=#d6b656;entryPerimeter=0;" edge="1" parent="1" source="22zVOBzsO85MiMw-DCJ8-8" target="22zVOBzsO85MiMw-DCJ8-3">
          <mxGeometry relative="1" as="geometry" />
        </mxCell>
        <mxCell id="22zVOBzsO85MiMw-DCJ8-14" style="edgeStyle=elbowEdgeStyle;rounded=0;orthogonalLoop=1;jettySize=auto;elbow=vertical;html=1;exitX=0.5;exitY=0;exitDx=0;exitDy=0;entryX=0.5;entryY=1;entryDx=0;entryDy=0;fillColor=#fff2cc;strokeColor=#d6b656;" edge="1" parent="1" source="22zVOBzsO85MiMw-DCJ8-8" target="22zVOBzsO85MiMw-DCJ8-4">
          <mxGeometry relative="1" as="geometry" />
        </mxCell>
        <mxCell id="22zVOBzsO85MiMw-DCJ8-15" style="edgeStyle=elbowEdgeStyle;rounded=0;orthogonalLoop=1;jettySize=auto;elbow=vertical;html=1;exitX=0.5;exitY=0;exitDx=0;exitDy=0;entryX=0.5;entryY=1;entryDx=0;entryDy=0;fillColor=#fff2cc;strokeColor=#d6b656;" edge="1" parent="1" source="22zVOBzsO85MiMw-DCJ8-8" target="22zVOBzsO85MiMw-DCJ8-5">
          <mxGeometry relative="1" as="geometry" />
        </mxCell>
        <mxCell id="22zVOBzsO85MiMw-DCJ8-16" style="edgeStyle=elbowEdgeStyle;rounded=0;orthogonalLoop=1;jettySize=auto;elbow=vertical;html=1;exitX=0.5;exitY=0;exitDx=0;exitDy=0;entryX=0.5;entryY=1;entryDx=0;entryDy=0;fillColor=#fff2cc;strokeColor=#d6b656;" edge="1" parent="1" source="22zVOBzsO85MiMw-DCJ8-8" target="22zVOBzsO85MiMw-DCJ8-6">
          <mxGeometry relative="1" as="geometry" />
        </mxCell>
        <mxCell id="22zVOBzsO85MiMw-DCJ8-17" style="edgeStyle=elbowEdgeStyle;rounded=0;orthogonalLoop=1;jettySize=auto;elbow=vertical;html=1;exitX=0.5;exitY=1;exitDx=0;exitDy=0;entryX=0.5;entryY=0;entryDx=0;entryDy=0;fillColor=#fff2cc;strokeColor=#d6b656;" edge="1" parent="1" source="22zVOBzsO85MiMw-DCJ8-8" target="22zVOBzsO85MiMw-DCJ8-9">
          <mxGeometry relative="1" as="geometry" />
        </mxCell>
        <mxCell id="22zVOBzsO85MiMw-DCJ8-18" style="edgeStyle=elbowEdgeStyle;rounded=0;orthogonalLoop=1;jettySize=auto;elbow=vertical;html=1;exitX=0.5;exitY=1;exitDx=0;exitDy=0;entryX=0.5;entryY=1;entryDx=0;entryDy=0;fillColor=#fff2cc;strokeColor=#d6b656;" edge="1" parent="1" source="22zVOBzsO85MiMw-DCJ8-8" target="22zVOBzsO85MiMw-DCJ8-7">
          <mxGeometry relative="1" as="geometry">
            <Array as="points">
              <mxPoint x="480" y="370" />
            </Array>
          </mxGeometry>
        </mxCell>
        <mxCell id="22zVOBzsO85MiMw-DCJ8-20" style="edgeStyle=elbowEdgeStyle;rounded=0;orthogonalLoop=1;jettySize=auto;elbow=vertical;html=1;exitX=0.5;exitY=1;exitDx=0;exitDy=0;entryX=0.5;entryY=1;entryDx=0;entryDy=0;fillColor=#fff2cc;strokeColor=#d6b656;" edge="1" parent="1" source="22zVOBzsO85MiMw-DCJ8-8" target="22zVOBzsO85MiMw-DCJ8-10">
          <mxGeometry relative="1" as="geometry">
            <Array as="points">
              <mxPoint x="390" y="370" />
            </Array>
          </mxGeometry>
        </mxCell>
        <mxCell id="22zVOBzsO85MiMw-DCJ8-31" style="edgeStyle=elbowEdgeStyle;rounded=0;orthogonalLoop=1;jettySize=auto;elbow=vertical;html=1;exitX=0.75;exitY=1;exitDx=0;exitDy=0;entryX=0.75;entryY=0;entryDx=0;entryDy=0;fillColor=#dae8fc;strokeColor=#6c8ebf;startArrow=classic;startFill=1;" edge="1" parent="1" source="22zVOBzsO85MiMw-DCJ8-8" target="22zVOBzsO85MiMw-DCJ8-9">
          <mxGeometry relative="1" as="geometry" />
        </mxCell>
        <mxCell id="22zVOBzsO85MiMw-DCJ8-33" style="edgeStyle=elbowEdgeStyle;rounded=0;orthogonalLoop=1;jettySize=auto;elbow=vertical;html=1;exitX=0.25;exitY=0;exitDx=0;exitDy=0;entryX=0.5;entryY=1;entryDx=0;entryDy=0;fillColor=#dae8fc;strokeColor=#6c8ebf;" edge="1" parent="1" source="22zVOBzsO85MiMw-DCJ8-8" target="22zVOBzsO85MiMw-DCJ8-3">
          <mxGeometry relative="1" as="geometry" />
        </mxCell>
        <mxCell id="22zVOBzsO85MiMw-DCJ8-8" value="Main program node" style="rounded=1;whiteSpace=wrap;html=1;" vertex="1" parent="1">
          <mxGeometry x="220" y="270" width="120" height="60" as="geometry" />
        </mxCell>
        <mxCell id="22zVOBzsO85MiMw-DCJ8-9" value="Wi-fi communication node" style="rounded=1;whiteSpace=wrap;html=1;" vertex="1" parent="1">
          <mxGeometry x="220" y="410" width="120" height="60" as="geometry" />
        </mxCell>
        <mxCell id="22zVOBzsO85MiMw-DCJ8-24" style="edgeStyle=elbowEdgeStyle;rounded=0;orthogonalLoop=1;jettySize=auto;elbow=vertical;html=1;exitX=0;exitY=0.5;exitDx=0;exitDy=0;entryX=1;entryY=0.5;entryDx=0;entryDy=0;fillColor=#dae8fc;strokeColor=#6c8ebf;startArrow=classic;startFill=1;" edge="1" parent="1" source="22zVOBzsO85MiMw-DCJ8-10" target="22zVOBzsO85MiMw-DCJ8-8">
          <mxGeometry relative="1" as="geometry" />
        </mxCell>
        <mxCell id="22zVOBzsO85MiMw-DCJ8-10" value="Navigation node" style="rounded=1;whiteSpace=wrap;html=1;" vertex="1" parent="1">
          <mxGeometry x="450" y="270" width="120" height="60" as="geometry" />
        </mxCell>
        <mxCell id="22zVOBzsO85MiMw-DCJ8-21" value="&lt;span style=&quot;white-space: pre;&quot;&gt;&#x9;&lt;/span&gt;Legend&lt;div&gt;&lt;ul&gt;&lt;li&gt;&lt;font color=&quot;#e6c35c&quot;&gt;initialization&lt;/font&gt;&lt;/li&gt;&lt;li&gt;&lt;font color=&quot;#97d077&quot;&gt;data&lt;/font&gt;&lt;/li&gt;&lt;li&gt;&lt;font color=&quot;#7ea6e0&quot;&gt;communication&lt;/font&gt;&lt;/li&gt;&lt;/ul&gt;&lt;/div&gt;" style="text;html=1;align=left;verticalAlign=middle;whiteSpace=wrap;rounded=0;fillColor=#f5f5f5;fontColor=#333333;strokeColor=#666666;" vertex="1" parent="1">
          <mxGeometry x="640" y="560" width="150" height="90" as="geometry" />
        </mxCell>
        <mxCell id="22zVOBzsO85MiMw-DCJ8-25" style="edgeStyle=elbowEdgeStyle;rounded=0;orthogonalLoop=1;jettySize=auto;elbow=vertical;html=1;exitX=0.5;exitY=0;exitDx=0;exitDy=0;fillColor=#d5e8d4;strokeColor=#82b366;startArrow=classic;startFill=1;endArrow=none;endFill=0;" edge="1" parent="1" source="22zVOBzsO85MiMw-DCJ8-7">
          <mxGeometry relative="1" as="geometry">
            <mxPoint x="698" y="179" as="targetPoint" />
            <Array as="points">
              <mxPoint x="690" y="240" />
              <mxPoint x="700" y="210" />
            </Array>
          </mxGeometry>
        </mxCell>
        <mxCell id="22zVOBzsO85MiMw-DCJ8-32" style="edgeStyle=elbowEdgeStyle;rounded=0;orthogonalLoop=1;jettySize=auto;elbow=vertical;html=1;exitX=1;exitY=0.5;exitDx=0;exitDy=0;entryX=0.331;entryY=1.047;entryDx=0;entryDy=0;entryPerimeter=0;startArrow=classic;startFill=1;endArrow=none;endFill=0;fillColor=#d5e8d4;strokeColor=#82b366;" edge="1" parent="1" source="22zVOBzsO85MiMw-DCJ8-9" target="22zVOBzsO85MiMw-DCJ8-7">
          <mxGeometry relative="1" as="geometry">
            <Array as="points">
              <mxPoint x="500" y="440" />
            </Array>
          </mxGeometry>
        </mxCell>
        <mxCell id="22zVOBzsO85MiMw-DCJ8-37" value="Beaglebone" style="text;html=1;align=center;verticalAlign=middle;whiteSpace=wrap;rounded=0;fontSize=16;" vertex="1" parent="1">
          <mxGeometry x="440" y="70" width="60" height="30" as="geometry" />
        </mxCell>
        <mxCell id="22zVOBzsO85MiMw-DCJ8-39" value="" style="shape=flexArrow;endArrow=classic;startArrow=classic;html=1;rounded=0;elbow=vertical;fillColor=default;gradientColor=none;exitX=0.5;exitY=0;exitDx=0;exitDy=0;entryX=0.5;entryY=1;entryDx=0;entryDy=0;" edge="1" parent="1" source="22zVOBzsO85MiMw-DCJ8-40" target="22zVOBzsO85MiMw-DCJ8-9">
          <mxGeometry width="100" height="100" relative="1" as="geometry">
            <mxPoint x="280" y="590" as="sourcePoint" />
            <mxPoint x="430" y="620" as="targetPoint" />
          </mxGeometry>
        </mxCell>
        <mxCell id="22zVOBzsO85MiMw-DCJ8-46" style="edgeStyle=elbowEdgeStyle;rounded=0;orthogonalLoop=1;jettySize=auto;elbow=vertical;html=1;exitX=1;exitY=0.5;exitDx=0;exitDy=0;fillColor=#d5e8d4;strokeColor=#82b366;" edge="1" parent="1" source="22zVOBzsO85MiMw-DCJ8-40" target="22zVOBzsO85MiMw-DCJ8-41">
          <mxGeometry relative="1" as="geometry">
            <Array as="points">
              <mxPoint x="430" y="610" />
            </Array>
          </mxGeometry>
        </mxCell>
        <mxCell id="22zVOBzsO85MiMw-DCJ8-40" value="Wi-fi communication node" style="rounded=1;whiteSpace=wrap;html=1;" vertex="1" parent="1">
          <mxGeometry x="220" y="580" width="120" height="60" as="geometry" />
        </mxCell>
        <mxCell id="22zVOBzsO85MiMw-DCJ8-41" value="Data visualization node" style="rounded=1;whiteSpace=wrap;html=1;" vertex="1" parent="1">
          <mxGeometry x="470" y="690" width="120" height="60" as="geometry" />
        </mxCell>
        <mxCell id="22zVOBzsO85MiMw-DCJ8-48" style="edgeStyle=elbowEdgeStyle;rounded=0;orthogonalLoop=1;jettySize=auto;elbow=vertical;html=1;exitX=0.5;exitY=0;exitDx=0;exitDy=0;entryX=0.5;entryY=1;entryDx=0;entryDy=0;fillColor=#dae8fc;strokeColor=#6c8ebf;" edge="1" parent="1" source="22zVOBzsO85MiMw-DCJ8-42" target="22zVOBzsO85MiMw-DCJ8-40">
          <mxGeometry relative="1" as="geometry" />
        </mxCell>
        <mxCell id="22zVOBzsO85MiMw-DCJ8-42" value="Driving commands node" style="rounded=1;whiteSpace=wrap;html=1;" vertex="1" parent="1">
          <mxGeometry x="220" y="690" width="120" height="60" as="geometry" />
        </mxCell>
        <mxCell id="22zVOBzsO85MiMw-DCJ8-51" style="edgeStyle=elbowEdgeStyle;rounded=0;orthogonalLoop=1;jettySize=auto;elbow=vertical;html=1;exitX=1;exitY=0.5;exitDx=0;exitDy=0;entryX=0;entryY=0.5;entryDx=0;entryDy=0;fillColor=#d5e8d4;strokeColor=#82b366;" edge="1" parent="1" source="22zVOBzsO85MiMw-DCJ8-44" target="22zVOBzsO85MiMw-DCJ8-42">
          <mxGeometry relative="1" as="geometry" />
        </mxCell>
        <mxCell id="22zVOBzsO85MiMw-DCJ8-44" value="PS4 controller" style="rounded=1;whiteSpace=wrap;html=1;" vertex="1" parent="1">
          <mxGeometry x="10" y="690" width="120" height="60" as="geometry" />
        </mxCell>
        <mxCell id="22zVOBzsO85MiMw-DCJ8-50" style="edgeStyle=elbowEdgeStyle;rounded=0;orthogonalLoop=1;jettySize=auto;elbow=vertical;html=1;exitX=0.5;exitY=0;exitDx=0;exitDy=0;entryX=0.5;entryY=1;entryDx=0;entryDy=0;fillColor=#d5e8d4;strokeColor=#82b366;" edge="1" parent="1" source="22zVOBzsO85MiMw-DCJ8-45" target="22zVOBzsO85MiMw-DCJ8-42">
          <mxGeometry relative="1" as="geometry" />
        </mxCell>
        <mxCell id="22zVOBzsO85MiMw-DCJ8-45" value="Keyboard input" style="rounded=1;whiteSpace=wrap;html=1;" vertex="1" parent="1">
          <mxGeometry x="220" y="780" width="120" height="60" as="geometry" />
        </mxCell>
        <mxCell id="22zVOBzsO85MiMw-DCJ8-55" value="Laptop" style="text;html=1;align=center;verticalAlign=middle;whiteSpace=wrap;rounded=0;fontSize=16;" vertex="1" parent="1">
          <mxGeometry x="384" y="530" width="60" height="30" as="geometry" />
        </mxCell>
      </root>
    </mxGraphModel>
  </diagram>
</mxfile>
